<mxfile host="65bd71144e">
    <diagram id="5gMrNbhCcvMap2-kCo8e" name="Page-1">
        <mxGraphModel dx="906" dy="512" grid="1" gridSize="5" guides="1" tooltips="1" connect="1" arrows="1" fold="1" page="1" pageScale="1" pageWidth="827" pageHeight="1169" math="0" shadow="0">
            <root>
                <mxCell id="0"/>
                <mxCell id="1" parent="0"/>
                <mxCell id="268" style="edgeStyle=none;html=1;entryX=0.5;entryY=0;entryDx=0;entryDy=0;fontSize=12;" parent="1" edge="1">
                    <mxGeometry relative="1" as="geometry">
                        <mxPoint x="370" y="340" as="sourcePoint"/>
                    </mxGeometry>
                </mxCell>
                <mxCell id="270" style="edgeStyle=none;html=1;fontSize=12;" parent="1" edge="1">
                    <mxGeometry relative="1" as="geometry">
                        <mxPoint x="408.5000000000001" y="410" as="sourcePoint"/>
                    </mxGeometry>
                </mxCell>
                <mxCell id="278" style="edgeStyle=none;html=1;entryX=0;entryY=0.5;entryDx=0;entryDy=0;fontSize=9;" parent="1" edge="1">
                    <mxGeometry relative="1" as="geometry">
                        <mxPoint x="559.5" y="210" as="sourcePoint"/>
                    </mxGeometry>
                </mxCell>
                <mxCell id="302" value="&lt;b&gt;Vehicle&lt;/b&gt;" style="text;html=1;align=center;verticalAlign=middle;resizable=0;points=[];autosize=1;strokeColor=none;fillColor=none;" parent="1" vertex="1">
                    <mxGeometry x="15" y="5" width="60" height="30" as="geometry"/>
                </mxCell>
                <mxCell id="414" style="edgeStyle=none;html=1;fontSize=12;" edge="1" parent="1" source="355" target="365">
                    <mxGeometry relative="1" as="geometry"/>
                </mxCell>
                <mxCell id="355" value="Start" style="strokeWidth=2;html=1;shape=mxgraph.flowchart.start_1;whiteSpace=wrap;" parent="1" vertex="1">
                    <mxGeometry x="163.75" y="70" width="100" height="60" as="geometry"/>
                </mxCell>
                <mxCell id="359" value="accelerate" style="text;html=1;align=center;verticalAlign=middle;resizable=0;points=[];autosize=1;strokeColor=none;fillColor=none;" parent="1" vertex="1">
                    <mxGeometry x="151.25" y="30" width="80" height="30" as="geometry"/>
                </mxCell>
                <mxCell id="415" style="edgeStyle=none;html=1;fontSize=12;" edge="1" parent="1" source="365" target="367">
                    <mxGeometry relative="1" as="geometry"/>
                </mxCell>
                <mxCell id="365" value="Get&lt;br style=&quot;font-size: 12px;&quot;&gt;accelerationPower" style="shape=parallelogram;html=1;strokeWidth=2;perimeter=parallelogramPerimeter;whiteSpace=wrap;rounded=1;arcSize=12;size=0.23;fontSize=12;" parent="1" vertex="1">
                    <mxGeometry x="138.75" y="170" width="150" height="60" as="geometry"/>
                </mxCell>
                <mxCell id="417" style="edgeStyle=none;html=1;fontSize=12;" edge="1" parent="1" source="367" target="416">
                    <mxGeometry relative="1" as="geometry"/>
                </mxCell>
                <mxCell id="367" value="Get&lt;br style=&quot;font-size: 12px;&quot;&gt;accelerationTime" style="shape=parallelogram;html=1;strokeWidth=2;perimeter=parallelogramPerimeter;whiteSpace=wrap;rounded=1;arcSize=12;size=0.23;fontSize=12;" parent="1" vertex="1">
                    <mxGeometry x="136.25" y="265" width="155" height="70" as="geometry"/>
                </mxCell>
                <mxCell id="419" style="edgeStyle=none;html=1;fontSize=12;" edge="1" parent="1" source="416" target="418">
                    <mxGeometry relative="1" as="geometry"/>
                </mxCell>
                <mxCell id="430" style="edgeStyle=none;html=1;fontSize=12;" edge="1" parent="1" source="416" target="424">
                    <mxGeometry relative="1" as="geometry"/>
                </mxCell>
                <mxCell id="416" value="if &lt;br&gt;(accelerationPower &amp;gt; 0 &amp;amp;&amp;amp; accelerationTime &amp;gt; 0)" style="strokeWidth=2;html=1;shape=mxgraph.flowchart.decision;whiteSpace=wrap;fontSize=12;" vertex="1" parent="1">
                    <mxGeometry x="121.25" y="365" width="175" height="162.5" as="geometry"/>
                </mxCell>
                <mxCell id="421" style="edgeStyle=none;html=1;entryX=0;entryY=0.5;entryDx=0;entryDy=0;entryPerimeter=0;fontSize=12;" edge="1" parent="1" source="418" target="420">
                    <mxGeometry relative="1" as="geometry"/>
                </mxCell>
                <mxCell id="418" value="this.speed = (accelerationPower * accelerationTime) + this.speed" style="rounded=1;whiteSpace=wrap;html=1;absoluteArcSize=1;arcSize=14;strokeWidth=2;fontSize=12;" vertex="1" parent="1">
                    <mxGeometry x="105" y="570" width="217.5" height="80" as="geometry"/>
                </mxCell>
                <mxCell id="429" style="edgeStyle=none;html=1;fontSize=12;" edge="1" parent="1" source="420" target="422">
                    <mxGeometry relative="1" as="geometry"/>
                </mxCell>
                <mxCell id="420" value="if &lt;br&gt;(this.speed &amp;gt; this.maxSpeed)" style="strokeWidth=2;html=1;shape=mxgraph.flowchart.decision;whiteSpace=wrap;fontSize=12;" vertex="1" parent="1">
                    <mxGeometry x="396.25" y="550" width="150" height="120" as="geometry"/>
                </mxCell>
                <mxCell id="433" style="edgeStyle=none;rounded=0;html=1;entryX=0.5;entryY=1;entryDx=0;entryDy=0;entryPerimeter=0;fontSize=12;" edge="1" parent="1" source="422" target="426">
                    <mxGeometry relative="1" as="geometry">
                        <Array as="points">
                            <mxPoint x="701.25" y="735"/>
                        </Array>
                    </mxGeometry>
                </mxCell>
                <mxCell id="422" value="this.speed = this.maxSpeed" style="rounded=1;whiteSpace=wrap;html=1;absoluteArcSize=1;arcSize=14;strokeWidth=2;fontSize=12;" vertex="1" parent="1">
                    <mxGeometry x="386.88" y="705" width="168.75" height="60" as="geometry"/>
                </mxCell>
                <mxCell id="431" style="edgeStyle=none;html=1;entryX=0.571;entryY=0.033;entryDx=0;entryDy=0;entryPerimeter=0;fontSize=12;rounded=0;" edge="1" parent="1" source="424" target="426">
                    <mxGeometry relative="1" as="geometry">
                        <Array as="points">
                            <mxPoint x="708.25" y="450"/>
                        </Array>
                    </mxGeometry>
                </mxCell>
                <mxCell id="424" value="Print &quot;Acceleration power &lt;br&gt;and time must be &lt;br&gt;positive numbers.&quot;" style="shape=parallelogram;html=1;strokeWidth=2;perimeter=parallelogramPerimeter;whiteSpace=wrap;rounded=1;arcSize=12;size=0.23;fontSize=12;" vertex="1" parent="1">
                    <mxGeometry x="353.75" y="403.75" width="235" height="85" as="geometry"/>
                </mxCell>
                <mxCell id="426" value="Stop" style="strokeWidth=2;html=1;shape=mxgraph.flowchart.start_1;whiteSpace=wrap;" vertex="1" parent="1">
                    <mxGeometry x="651.25" y="500" width="100" height="60" as="geometry"/>
                </mxCell>
                <mxCell id="428" value="Yes" style="text;html=1;align=center;verticalAlign=middle;resizable=0;points=[];autosize=1;strokeColor=none;fillColor=none;fontSize=12;" vertex="1" parent="1">
                    <mxGeometry x="232.25" y="520" width="40" height="30" as="geometry"/>
                </mxCell>
                <mxCell id="432" value="No" style="text;html=1;align=center;verticalAlign=middle;resizable=0;points=[];autosize=1;strokeColor=none;fillColor=none;fontSize=12;" vertex="1" parent="1">
                    <mxGeometry x="308.25" y="407.5" width="35" height="30" as="geometry"/>
                </mxCell>
                <mxCell id="435" style="edgeStyle=none;html=1;fontSize=12;" edge="1" parent="1" source="436" target="439">
                    <mxGeometry relative="1" as="geometry"/>
                </mxCell>
                <mxCell id="436" value="Start" style="strokeWidth=2;html=1;shape=mxgraph.flowchart.start_1;whiteSpace=wrap;" vertex="1" parent="1">
                    <mxGeometry x="868.75" y="80" width="100" height="60" as="geometry"/>
                </mxCell>
                <mxCell id="437" value="brake" style="text;html=1;align=center;verticalAlign=middle;resizable=0;points=[];autosize=1;strokeColor=none;fillColor=none;" vertex="1" parent="1">
                    <mxGeometry x="871.25" y="40" width="50" height="30" as="geometry"/>
                </mxCell>
                <mxCell id="438" style="edgeStyle=none;html=1;fontSize=12;" edge="1" parent="1" source="439" target="441">
                    <mxGeometry relative="1" as="geometry"/>
                </mxCell>
                <mxCell id="439" value="Get&lt;br&gt;brakePower" style="shape=parallelogram;html=1;strokeWidth=2;perimeter=parallelogramPerimeter;whiteSpace=wrap;rounded=1;arcSize=12;size=0.23;fontSize=12;" vertex="1" parent="1">
                    <mxGeometry x="843.75" y="180" width="150" height="60" as="geometry"/>
                </mxCell>
                <mxCell id="440" style="edgeStyle=none;html=1;fontSize=12;" edge="1" parent="1" source="441" target="444">
                    <mxGeometry relative="1" as="geometry"/>
                </mxCell>
                <mxCell id="441" value="Get&lt;br style=&quot;font-size: 12px;&quot;&gt;brakeTime" style="shape=parallelogram;html=1;strokeWidth=2;perimeter=parallelogramPerimeter;whiteSpace=wrap;rounded=1;arcSize=12;size=0.23;fontSize=12;" vertex="1" parent="1">
                    <mxGeometry x="841.25" y="275" width="155" height="70" as="geometry"/>
                </mxCell>
                <mxCell id="442" style="edgeStyle=none;html=1;fontSize=12;" edge="1" parent="1" source="444" target="446">
                    <mxGeometry relative="1" as="geometry"/>
                </mxCell>
                <mxCell id="443" style="edgeStyle=none;html=1;fontSize=12;" edge="1" parent="1" source="444" target="452">
                    <mxGeometry relative="1" as="geometry"/>
                </mxCell>
                <mxCell id="444" value="if &lt;br&gt;(brakePower &amp;gt; 0&lt;br&gt;&amp;nbsp;&amp;amp;&amp;amp; brakeTime &amp;gt; 0)" style="strokeWidth=2;html=1;shape=mxgraph.flowchart.decision;whiteSpace=wrap;fontSize=12;" vertex="1" parent="1">
                    <mxGeometry x="826.25" y="375" width="175" height="162.5" as="geometry"/>
                </mxCell>
                <mxCell id="445" style="edgeStyle=none;html=1;entryX=0;entryY=0.5;entryDx=0;entryDy=0;entryPerimeter=0;fontSize=12;" edge="1" parent="1" source="446" target="448">
                    <mxGeometry relative="1" as="geometry"/>
                </mxCell>
                <mxCell id="446" value="this.speed = this.speed - &lt;br&gt;(brakePower * brakeTime)" style="rounded=1;whiteSpace=wrap;html=1;absoluteArcSize=1;arcSize=14;strokeWidth=2;fontSize=12;" vertex="1" parent="1">
                    <mxGeometry x="810" y="580" width="217.5" height="80" as="geometry"/>
                </mxCell>
                <mxCell id="447" style="edgeStyle=none;html=1;fontSize=12;" edge="1" parent="1" source="448" target="450">
                    <mxGeometry relative="1" as="geometry"/>
                </mxCell>
                <mxCell id="448" value="if (this.speed &amp;lt; 0)" style="strokeWidth=2;html=1;shape=mxgraph.flowchart.decision;whiteSpace=wrap;fontSize=12;" vertex="1" parent="1">
                    <mxGeometry x="1101.25" y="560" width="150" height="120" as="geometry"/>
                </mxCell>
                <mxCell id="449" style="edgeStyle=none;rounded=0;html=1;entryX=0.5;entryY=1;entryDx=0;entryDy=0;entryPerimeter=0;fontSize=12;" edge="1" parent="1" source="450" target="453">
                    <mxGeometry relative="1" as="geometry">
                        <Array as="points">
                            <mxPoint x="1406.25" y="745"/>
                        </Array>
                    </mxGeometry>
                </mxCell>
                <mxCell id="450" value="this.speed = 0" style="rounded=1;whiteSpace=wrap;html=1;absoluteArcSize=1;arcSize=14;strokeWidth=2;fontSize=12;" vertex="1" parent="1">
                    <mxGeometry x="1091.88" y="715" width="168.75" height="60" as="geometry"/>
                </mxCell>
                <mxCell id="451" style="edgeStyle=none;html=1;entryX=0.571;entryY=0.033;entryDx=0;entryDy=0;entryPerimeter=0;fontSize=12;rounded=0;" edge="1" parent="1" source="452" target="453">
                    <mxGeometry relative="1" as="geometry">
                        <Array as="points">
                            <mxPoint x="1413.25" y="460"/>
                        </Array>
                    </mxGeometry>
                </mxCell>
                <mxCell id="452" value="Print &quot;Brake power and &lt;br&gt;time must be positive numbers..&quot;" style="shape=parallelogram;html=1;strokeWidth=2;perimeter=parallelogramPerimeter;whiteSpace=wrap;rounded=1;arcSize=12;size=0.23;fontSize=12;" vertex="1" parent="1">
                    <mxGeometry x="1058.75" y="413.75" width="235" height="85" as="geometry"/>
                </mxCell>
                <mxCell id="453" value="Stop" style="strokeWidth=2;html=1;shape=mxgraph.flowchart.start_1;whiteSpace=wrap;" vertex="1" parent="1">
                    <mxGeometry x="1356.25" y="510" width="100" height="60" as="geometry"/>
                </mxCell>
                <mxCell id="454" value="Yes" style="text;html=1;align=center;verticalAlign=middle;resizable=0;points=[];autosize=1;strokeColor=none;fillColor=none;fontSize=12;" vertex="1" parent="1">
                    <mxGeometry x="937.25" y="530" width="40" height="30" as="geometry"/>
                </mxCell>
                <mxCell id="455" value="No" style="text;html=1;align=center;verticalAlign=middle;resizable=0;points=[];autosize=1;strokeColor=none;fillColor=none;fontSize=12;" vertex="1" parent="1">
                    <mxGeometry x="1013.25" y="417.5" width="35" height="30" as="geometry"/>
                </mxCell>
                <mxCell id="456" value="Yes" style="text;html=1;align=center;verticalAlign=middle;resizable=0;points=[];autosize=1;strokeColor=none;fillColor=none;fontSize=12;" vertex="1" parent="1">
                    <mxGeometry x="1137" y="675" width="40" height="30" as="geometry"/>
                </mxCell>
                <mxCell id="457" value="Yes" style="text;html=1;align=center;verticalAlign=middle;resizable=0;points=[];autosize=1;strokeColor=none;fillColor=none;fontSize=12;" vertex="1" parent="1">
                    <mxGeometry x="425" y="670" width="40" height="30" as="geometry"/>
                </mxCell>
            </root>
        </mxGraphModel>
    </diagram>
</mxfile>
